HIERARCHY
ROOT Hips
{
 OFFSET 0.000000 0.000000 0.000000
 CHANNELS 6 Xposition Yposition Zposition Yrotation Xrotation Zrotation
 JOINT Chest
 {
  OFFSET 0.000000 9.581000 -0.001100
  CHANNELS 3 Yrotation Xrotation Zrotation
  JOINT Chest2
  {
   OFFSET 0.000000 9.561100 0.002200
   CHANNELS 3 Yrotation Xrotation Zrotation
   JOINT Chest3
   {
    OFFSET 0.000000 9.521100 0.000000
    CHANNELS 3 Yrotation Xrotation Zrotation
    JOINT Chest4
    {
     OFFSET 0.000000 9.511400 0.000000
     CHANNELS 3 Yrotation Xrotation Zrotation
     JOINT Neck
     {
      OFFSET 0.000000 14.375100 0.000000
      CHANNELS 3 Yrotation Xrotation Zrotation
      JOINT Head
      {
       OFFSET 0.000000 8.901200 0.004600
       CHANNELS 3 Yrotation Xrotation Zrotation
       End Site
       {
        OFFSET 0.000000 16.962200 0.002400
       }
      }
     }
     JOINT RightCollar
     {
      OFFSET -2.920100 9.518800 0.000000
      CHANNELS 3 Yrotation Xrotation Zrotation
      JOINT RightShoulder
      {
       OFFSET -13.664500 0.000000 0.000000
       CHANNELS 3 Yrotation Xrotation Zrotation
       JOINT RightElbow
       {
        OFFSET 0.000000 -29.999200 0.000000
        CHANNELS 3 Yrotation Xrotation Zrotation
        JOINT RightWrist
        {
         OFFSET 0.000000 -24.253600 0.000000
         CHANNELS 3 Yrotation Xrotation Zrotation
         End Site
         {
          OFFSET 0.000000 -17.918900 0.000000
         }
        }
       }
      }
     }
     JOINT LeftCollar
     {
      OFFSET 2.920100 9.518800 0.000000
      CHANNELS 3 Yrotation Xrotation Zrotation
      JOINT LeftShoulder
      {
       OFFSET 13.664500 0.000000 0.000000
       CHANNELS 3 Yrotation Xrotation Zrotation
       JOINT LeftElbow
       {
        OFFSET 0.000000 -29.999200 0.000000
        CHANNELS 3 Yrotation Xrotation Zrotation
        JOINT LeftWrist
        {
         OFFSET 0.000000 -24.253600 0.000000
         CHANNELS 3 Yrotation Xrotation Zrotation
         End Site
         {
          OFFSET 0.000000 -17.918900 0.000000
         }
        }
       }
      }
     }
    }
   }
  }
 }
 JOINT RightHip
 {
  OFFSET -7.797300 0.005300 0.000500
  CHANNELS 3 Yrotation Xrotation Zrotation
  JOINT RightKnee
  {
   OFFSET 0.000000 -40.663400 -0.000500
   CHANNELS 3 Yrotation Xrotation Zrotation
   JOINT RightAnkle
   {
    OFFSET 0.000000 -39.523700 -0.000900
    CHANNELS 3 Yrotation Xrotation Zrotation
    JOINT RightToe
    {
     OFFSET 0.000000 -6.418000 14.485300
     CHANNELS 3 Yrotation Xrotation Zrotation
     End Site
     {
      OFFSET 0.000000 -1.465200 6.326400
     }
    }
   }
  }
 }
 JOINT LeftHip
 {
  OFFSET 7.797300 0.005300 0.000500
  CHANNELS 3 Yrotation Xrotation Zrotation
  JOINT LeftKnee
  {
   OFFSET 0.000000 -40.663400 -0.000500
   CHANNELS 3 Yrotation Xrotation Zrotation
   JOINT LeftAnkle
   {
    OFFSET 0.000000 -39.523700 -0.000900
    CHANNELS 3 Yrotation Xrotation Zrotation
    JOINT LeftToe
    {
     OFFSET 0.000000 -6.418000 14.485300
     CHANNELS 3 Yrotation Xrotation Zrotation
     End Site
     {
      OFFSET 0.000000 -1.465200 6.326400
     }
    }
   }
  }
 }
}
MOTION
Frames: 15
Frame Time: 0.008333
0.000000 86.422400 0.000000 0.000000 -5.767877 0.000000 0.000000 11.653817 0.000000 0.000000 -5.885947 0.000000 0.000000 -0.000000 0.000000 0.000000 -0.000000 0.000000 0.000000 12.528835 0.000000 0.000000 0.711642 0.000000 0.000000 -0.000000 0.000000 0.000000 0.000000 -90.000000 0.000000 -2.309062 0.000000 0.000000 2.309062 0.000000 0.000000 -0.000000 0.000000 0.000000 -0.000000 90.000000 0.000000 -2.309062 0.000000 0.000000 2.309062 0.000000 0.000000 8.520406 0.000000 0.000000 1.905762 0.000000 -0.000000 -4.658285 0.000000 0.000000 -0.000000 0.000000 0.000000 8.520406 0.000000 0.000000 1.905762 0.000000 -0.000000 -4.658285 0.000000 0.000000 -0.000000 0.000000
-21.965315 126.515330 66.109583 -172.459630 -30.188040 -0.494669 -3.010820 25.328561 0.259122 -0.488195 4.077120 0.117089 -0.775511 6.522605 0.188753 -2.492949 20.924068 0.294403 1.975082 10.562557 -2.480990 2.689633 -14.538281 -3.112851 -1.183850 -4.258374 -1.692991 -10.186784 -12.246183 2.233829 -87.231059 -17.510888 94.894067 -32.636056 -8.420257 -7.097983 -9.894972 -4.884050 -1.250618 5.908969 -22.367436 2.984671 88.227097 -32.113586 -110.952576 21.213300 -29.136414 24.527491 -4.144709 -56.831509 2.575209 -36.799793 69.377943 -38.201353 19.279379 33.627203 9.656666 0.018745 0.012357 0.008307 -10.216868 -46.732958 -9.525979 29.097649 71.878121 18.236081 2.662078 3.320794 8.320895 -0.005546 0.009025 -0.002458
-21.967330 126.516200 66.111497 -172.424144 -30.209424 -0.506407 -3.047758 25.338839 0.239719 -0.487398 4.082969 0.099935 -0.782767 6.529922 0.183248 -2.517657 20.932316 0.272750 1.973455 10.606137 -2.475226 2.685404 -14.492848 -3.105019 -1.245848 -4.298717 -1.763742 -10.323868 -12.008352 2.269263 -87.131216 -17.545824 94.951717 -32.611215 -8.396213 -7.108489 -9.919415 -4.938535 -1.231465 5.920212 -22.267456 3.094466 88.378046 -32.218276 -111.301564 21.147149 -29.371620 24.686480 -4.134225 -56.810317 2.568738 -36.812955 69.342700 -38.238148 19.297780 33.670588 9.700185 0.017987 0.007708 0.007970 -10.242091 -46.713547 -9.522714 29.142119 71.852184 18.259497 2.642289 3.348274 8.330775 -0.004545 0.004854 -0.002014
-21.970163 126.518677 66.111374 -172.352404 -30.249712 -0.534988 -3.098324 25.368888 0.187146 -0.495232 4.095406 0.122119 -0.787888 6.538408 0.178367 -2.534662 20.942533 0.254131 1.965292 10.638252 -2.463198 2.672761 -14.459407 -3.089066 -1.316533 -4.345998 -1.824239 -10.443029 -11.778697 2.294580 -87.075131 -17.592843 95.008024 -32.595175 -8.385998 -7.118311 -9.910373 -4.961605 -1.195289 5.874543 -22.213996 3.160070 88.558956 -32.347324 -111.640648 21.064044 -29.575173 24.835397 -4.165872 -56.770424 2.554900 -36.803824 69.320616 -38.255073 19.296734 33.729650 9.750973 0.005937 0.005011 0.002631 -10.284655 -46.676617 -9.535089 29.140575 71.844254 18.251138 2.640630 3.360985 8.331823 -0.001043 0.004362 -0.000462
-21.974019 126.519353 66.114998 -172.330240 -30.269047 -0.531448 -3.114568 25.381342 0.153902 -0.497281 4.100759 0.119312 -0.791168 6.546486 0.173707 -2.542487 20.952434 0.247849 1.949479 10.668961 -2.456762 2.655989 -14.427908 -3.067798 -1.395444 -4.385050 -1.889322 -10.552646 -11.557796 2.307466 -87.053544 -17.643385 95.064372 -32.588251 -8.391193 -7.121195 -9.915958 -4.981910 -1.170592 5.857920 -22.182752 3.197688 88.713214 -32.483995 -111.955549 20.966516 -29.747584 24.979073 -4.145799 -56.751885 2.533483 -36.798343 69.274603 -38.308253 19.355718 33.770603 9.867384 -0.024276 -0.001232 -0.010756 -10.279486 -46.660848 -9.555495 29.139741 71.835805 18.245330 2.647838 3.372528 8.326762 0.004656 0.002506 0.002063
-21.977120 126.520286 66.118544 -172.306377 -30.291012 -0.535236 -3.130077 25.387943 0.128648 -0.498698 4.104657 0.116580 -0.792531 6.557744 0.175882 -2.553874 20.953918 0.225296 1.939355 10.707134 -2.435995 2.639016 -14.388160 -3.041704 -1.473781 -4.400524 -1.944107 -10.655985 -11.346570 2.310229 -87.057405 -17.693179 95.120604 -32.590046 -8.408888 -7.116982 -9.999938 -4.990801 -1.158491 5.836647 -22.108434 3.302989 88.958793 -32.588029 -112.317480 20.865917 -29.899856 25.125611 -4.123157 -56.731330 2.515424 -36.850408 69.238639 -38.379053 19.392985 33.791800 9.914428 -0.025089 -0.002654 -0.011116 -10.276313 -46.635823 -9.569944 29.188727 71.803706 18.278695 2.627067 3.399236 8.342676 0.000972 -0.001129 0.000430
-21.979405 126.521172 66.122433 -172.292040 -30.312300 -0.540762 -3.139983 25.385138 0.106924 -0.499942 4.106638 0.114076 -0.794579 6.560674 0.171871 -2.564902 20.957503 0.200299 1.938540 10.758377 -2.403307 2.626097 -14.334327 -3.014129 -1.546987 -4.390703 -1.994523 -10.754030 -11.142024 2.309142 -87.075958 -17.742266 95.175066 -32.598549 -8.439061 -7.101565 -10.047209 -4.969461 -1.127636 5.769961 -22.040792 3.392066 89.215368 -32.667970 -112.685127 20.774082 -30.038147 25.278649 -4.096513 -56.713887 2.500284 -36.908676 69.206271 -38.448595 19.447360 33.812348 9.959751 -0.023611 -0.003725 -0.010461 -10.273395 -46.610476 -9.575972 29.209802 71.785289 18.292703 2.614075 3.413383 8.350488 0.000071 -0.001350 0.000032
-21.980801 126.521093 66.128145 -172.286333 -30.322290 -0.547642 -3.144851 25.373837 0.093979 -0.498968 4.114885 0.118335 -0.802999 6.540873 0.151248 -2.571279 20.964396 0.194023 1.954576 10.802980 -2.379191 2.601491 -14.247112 -2.986606 -1.616479 -4.367365 -2.063049 -10.851041 -10.938958 2.308783 -87.100069 -17.788847 95.226442 -32.609936 -8.479373 -7.073128 -10.071951 -4.937833 -1.103249 5.701205 -21.989794 3.456786 89.434670 -32.723937 -113.038527 20.706198 -30.162013 25.428691 -4.042607 -56.715944 2.485426 -37.022470 69.170460 -38.560051 19.535469 33.845019 10.007048 -0.004606 -0.002041 -0.002041 -10.276414 -46.593270 -9.568756 29.249675 71.762146 18.320334 2.593261 3.424269 8.363072 -0.003784 0.000328 -0.001676
-21.982166 126.522746 66.130962 -172.276570 -30.353407 -0.560765 -3.151249 25.397792 0.095064 -0.501208 4.107586 0.111805 -0.807762 6.532870 0.145289 -2.580261 20.964626 0.184690 1.964595 10.844870 -2.364852 2.575659 -14.149915 -2.957328 -1.689170 -4.350489 -2.140611 -10.949356 -10.733649 2.310478 -87.125818 -17.832157 95.276789 -32.619627 -8.522091 -7.040199 -10.094809 -4.913443 -1.080422 5.634483 -21.942110 3.508750 89.623878 -32.752010 -113.387437 20.668966 -30.272063 25.565601 -4.025167 -56.689258 2.487436 -37.076562 69.137608 -38.619163 19.562434 33.886090 10.044716 -0.003765 -0.003554 -0.001668 -10.286549 -46.558929 -9.558268 29.275761 71.751599 18.333762 2.586141 3.433483 8.371657 -0.005110 -0.000252 -0.002264
-21.984989 126.526585 66.130267 -172.249132 -30.410100 -0.578431 -3.178688 25.422617 0.076096 -0.508519 4.082225 0.091922 -0.794535 6.583240 0.175702 -2.583745 20.964615 0.181604 1.937628 10.894189 -2.361192 2.589721 -14.132275 -2.949102 -1.771115 -4.354035 -2.223273 -11.053725 -10.523694 2.314721 -87.147847 -17.878568 95.330624 -32.628520 -8.562013 -7.014673 -10.121454 -4.908226 -1.066371 5.570606 -21.900849 3.552279 89.774031 -32.752128 -113.728689 20.654729 -30.360469 25.687422 -4.030328 -56.634020 2.484207 -37.088174 69.111426 -38.642019 19.562881 33.933508 10.084927 -0.010769 -0.011570 -0.004771 -10.307669 -46.497759 -9.559028 29.296720 71.739397 18.339442 2.583010 3.441885 8.380401 -0.006032 -0.001347 -0.002672
-21.987453 126.528270 66.133112 -172.230772 -30.441136 -0.591815 -3.197557 25.425203 0.060505 -0.505000 4.099234 0.099070 -0.803327 6.568677 0.163550 -2.593545 20.966220 0.169335 1.913133 11.005899 -2.340736 2.590102 -14.074936 -2.917398 -1.789205 -4.334503 -2.243724 -11.195988 -10.322331 2.284402 -87.166580 -17.933363 95.391012 -32.642416 -8.598901 -7.003160 -10.110731 -4.881150 -1.044847 5.501222 -21.872558 3.591609 89.885770 -32.726641 -114.054869 20.654030 -30.422845 25.795614 -4.030978 -56.605749 2.484360 -37.081383 69.089507 -38.647494 19.567972 34.001640 10.134169 -0.016574 -0.007758 -0.007342 -10.331956 -46.462463 -9.541104 29.289518 71.731391 18.310380 2.583835 3.448971 8.386387 -0.002965 -0.000765 -0.001314
-21.988180 126.529549 66.136244 -172.219731 -30.466118 -0.612272 -3.196724 25.428680 0.061168 -0.507138 4.111881 0.105991 -0.807354 6.562822 0.152002 -2.606651 20.987863 0.127803 1.917873 11.070428 -2.288442 2.568594 -14.010385 -2.877027 -1.808824 -4.345842 -2.229919 -11.330923 -10.118444 2.263421 -87.192864 -17.989254 95.454256 -32.654686 -8.630796 -7.002778 -10.103366 -4.879749 -0.987507 5.450427 -21.855550 3.621600 89.958237 -32.682814 -114.359812 20.660230 -30.468366 25.895078 -3.987825 -56.581534 2.481459 -37.140335 69.054777 -38.693366 19.587812 34.042612 10.161896 -0.003429 -0.009855 -0.001519 -10.353079 -46.434525 -9.522014 29.297591 71.727055 18.309876 2.585344 3.451944 8.390910 -0.006023 -0.001017 -0.002669
-21.989175 126.531010 66.138794 -172.208660 -30.491397 -0.632144 -3.194841 25.443739 0.057192 -0.507169 4.117512 0.105109 -0.807204 6.571494 0.150636 -2.592197 21.009364 0.120160 1.903373 11.107382 -2.257876 2.544546 -13.972247 -2.839468 -1.886290 -4.375972 -2.261933 -11.428127 -9.909805 2.278550 -87.231094 -18.035998 95.516808 -32.656136 -8.656935 -7.011347 -10.126975 -4.910440 -0.955252 5.424881 -21.837044 3.651293 89.992109 -32.629879 -114.646282 20.669916 -30.503330 25.990479 -3.984004 -56.553483 2.488766 -37.150670 69.038052 -38.697191 19.607391 34.076080 10.180616 0.003240 -0.005289 0.001435 -10.375648 -46.403050 -9.495539 29.274386 71.726561 18.275893 2.583454 3.450441 8.395146 -0.004802 0.001168 -0.002128
-21.989640 126.532117 66.141515 -172.196236 -30.510040 -0.656101 -3.183056 25.461841 0.063294 -0.505963 4.124533 0.103928 -0.796462 6.591150 0.128353 -2.586903 21.005261 0.144811 1.887281 11.144466 -2.235098 2.517332 -13.936330 -2.801222 -2.022011 -4.378145 -2.327638 -11.470404 -9.719666 2.330278 -87.274727 -18.069330 95.577213 -32.652465 -8.679303 -7.032130 -10.137935 -4.925848 -0.927046 5.413643 -21.833781 3.660903 89.994752 -32.575105 -114.920895 20.681148 -30.533551 26.081553 -3.991845 -56.530547 2.503568 -37.153309 69.022481 -38.693172 19.617428 34.112730 10.195830 0.007246 -0.000192 0.003210 -10.390517 -46.381110 -9.463103 29.218874 71.735917 18.215057 2.580691 3.452730 8.399761 0.000504 0.000093 0.000223
-21.991299 126.532628 66.144945 -172.189879 -30.519373 -0.669714 -3.160319 25.464279 0.042266 -0.512325 4.136989 0.121391 -0.795776 6.587688 0.132097 -2.578437 21.011496 0.142575 1.871273 11.184140 -2.208823 2.509436 -13.938713 -2.782957 -2.114589 -4.369412 -2.356461 -11.550657 -9.534134 2.340432 -87.313525 -18.088993 95.631426 -32.650958 -8.699637 -7.063213 -10.151445 -4.926659 -0.902650 5.383280 -21.842326 3.692499 90.003357 -32.508906 -115.177037 20.692077 -30.564916 26.165690 -3.982580 -56.515923 2.502738 -37.151837 69.002220 -38.686418 19.607244 34.141322 10.210681 0.004520 -0.000895 0.002003 -10.392368 -46.370015 -9.448540 29.179299 71.740682 18.172896 2.582877 3.455406 8.406786 0.001872 -0.001190 0.000830
